# xmcd
#
# Track frame offsets:
#	150
#	8141
#	32406
#	49474
#	57790
#	72448
#	114480
#	124931
#	151919
#	167991
#
# Disc length: 3021 seconds
#
# Revision: 0
# Processed by: cddbd v1.5.1PL0 Copyright (c) Steve Scherf et al.
# Submitted via: dBpowerAMP V4.0
#
DISCID=830bcb0a
DTITLE=James Brown - Super Bad - Live
DYEAR=1900
DGENRE=Funk
TTITLE0=Give It Up, Turn It Loose
TTITLE1=It's Too Funky In Here
TTITLE2=Gonna Have A Funky Good Time
TTITLE3=Try Me
TTITLE4=Get On The Good Foot
TTITLE5=Prisoner Of Love
TTITLE6=Get Up Offa That Thing
TTITLE7=Georgia On My Mind
TTITLE8=I Got The Feeling
TTITLE9=It's A Mans World
EXTD=
EXTT0=
EXTT1=
EXTT2=
EXTT3=
EXTT4=
EXTT5=
EXTT6=
EXTT7=
EXTT8=
EXTT9=
PLAYORDER=
